<svg xmlns="http://www.w3.org/2000/svg"  viewBox="0 0 64 64" width="100px" height="100px"><path d="M 36.146484 0.0078125 C 35.848828 -0.0278125 35.547578 0.0715625 35.330078 0.2890625 C 35.030078 0.5690625 34.949375 1.010625 35.109375 1.390625 C 35.119375 1.430625 36.589688 4.9495313 36.929688 9.2695312 C 35.459688 8.6595313 32.96 8 29 8 C 22.21 8 18.820625 11.289062 17.640625 12.789062 C 16.640625 12.309062 14.490781 10.950391 11.800781 7.4003906 C 11.540781 7.0503906 11.089688 6.9207813 10.679688 7.0507812 C 10.269687 7.1907813 10 7.57 10 8 C 10 10.76 11.280937 13.879531 12.210938 15.769531 L 6.1191406 15.009766 C 5.5991406 14.949766 5.1195312 15.290547 5.0195312 15.810547 C 4.9195313 16.330547 5.24 16.840703 5.75 16.970703 C 9.31 17.890703 10.540391 20.030859 10.900391 20.880859 C 10.310391 21.920859 9 24.71 9 29 C 9 36.42 15.000781 40.570391 16.800781 41.650391 C 17.126582 43.759523 19.120432 45.27112 21.195312 45.662109 C 21.112692 47.811294 20.767381 50.209296 20.380859 52.730469 C 19.880859 56.070469 19.359375 59.52 19.359375 63 C 19.359375 63.55 19.809375 64 20.359375 64 L 36.029297 64 C 36.579297 64 37.029297 63.55 37.029297 63 C 37.029297 62.15 37.189375 60.899062 38.609375 59.789062 C 40.039375 58.679062 39.840703 57.300703 39.720703 56.470703 C 39.710703 56.380703 39.699453 56.300469 39.689453 56.230469 C 41.709453 56.730469 46.480313 57.559219 51.320312 55.949219 C 52.460312 55.569219 52.949922 54.860078 53.169922 54.330078 C 53.499922 53.510078 53.400625 52.519063 52.890625 51.539062 C 52.870625 51.499063 52.840313 51.459688 52.820312 51.429688 L 50.580078 48.230469 L 50 47.369141 C 51.15 46.629141 52 45.32 52 44 C 52 42.559996 50.987348 41.153569 49.677734 40.457031 C 51.09331 39.260743 52 37.482986 52 35.5 C 52 33.71 51.270078 32.080156 50.080078 30.910156 C 50.060078 29.860156 49.530859 28.859453 48.630859 28.189453 C 48.300859 27.949453 47.889453 27.769844 47.439453 27.589844 C 47.089453 27.439844 46.169922 27.060078 46.169922 26.830078 L 46.169922 25.910156 C 49.299922 25.480156 54 23.32 54 18 C 54 11.06 47.090781 1.7903906 46.800781 1.4003906 C 46.540781 1.0503906 46.089687 0.91078125 45.679688 1.0507812 C 45.279688 1.1907813 45 1.57 45 2 L 45 7.0292969 C 43.44 4.8092969 40.779453 2.0398437 36.439453 0.08984375 C 36.344453 0.04734375 36.245703 0.0196875 36.146484 0.0078125 z M 37.789062 3.0507812 C 43.399062 6.4407812 45.030781 11.250547 45.050781 11.310547 C 45.200781 11.780547 45.670391 12.060234 46.150391 11.990234 C 46.640391 11.910234 47 11.49 47 11 L 47 5.25 C 49.01 8.42 52 13.82 52 18 C 52 22.07 48.419922 23.520625 46.169922 23.890625 C 45.779922 23.960625 45.440156 23.99 45.160156 24 C 44.970156 23.94 44.639922 23.829453 44.169922 23.689453 C 41.389922 22.879453 33.82 21 23 21 C 22.56 21 22.180781 21.279219 22.050781 21.699219 C 21.920781 22.119219 22.069688 22.570312 22.429688 22.820312 C 24.219687 24.060312 25.130078 25.599219 25.580078 26.699219 L 22.199219 26.019531 C 21.769219 25.929531 21.360391 26.139766 21.150391 26.509766 C 20.930391 26.879766 20.989531 27.359453 21.269531 27.689453 C 21.289531 27.709453 22.770703 29.469844 22.970703 36.339844 C 22.470703 36.209844 21.929844 36.169922 21.339844 36.169922 C 19.269844 36.169922 17.609766 37.470625 17.009766 39.390625 C 14.959766 37.940625 11 34.43 11 29 C 11 24.26 12.800312 21.600078 12.820312 21.580078 C 12.980313 21.340078 13.040703 21.039766 12.970703 20.759766 C 12.950703 20.659766 12.559062 19.150625 11.039062 17.640625 L 13.880859 17.990234 C 14.260859 18.040234 14.629844 17.870781 14.839844 17.550781 C 15.049844 17.220781 15.049375 16.810234 14.859375 16.490234 C 14.839375 16.450234 13.429609 14.090156 12.599609 11.410156 C 15.509609 14.390156 17.519062 14.920469 17.789062 14.980469 C 18.199063 15.070469 18.639375 14.88 18.859375 14.5 C 18.969375 14.32 21.62 10 29 10 C 35.18 10 37.320078 11.74 37.330078 11.75 C 37.630078 12.01 38.050156 12.070156 38.410156 11.910156 C 38.770156 11.750156 39 11.39 39 11 C 39 7.86 38.359062 4.9807813 37.789062 3.0507812 z M 30.998047 11.912109 C 30.440047 11.861109 29.964969 12.272266 29.917969 12.822266 L 29.748047 14.814453 C 29.701047 15.365453 30.110156 15.850484 30.660156 15.896484 C 30.689156 15.899484 30.718094 15.900391 30.746094 15.900391 C 31.261094 15.900391 31.696234 15.506375 31.740234 14.984375 L 31.910156 12.992188 C 31.957156 12.441187 31.548047 11.958109 30.998047 11.912109 z M 26.230469 12.3125 C 26.101984 12.29375 25.967234 12.299938 25.833984 12.335938 C 25.299984 12.473937 24.978188 13.019687 25.117188 13.554688 L 25.617188 15.490234 C 25.733187 15.940234 26.141938 16.240234 26.585938 16.240234 C 26.668938 16.240234 26.753891 16.229031 26.837891 16.207031 C 27.371891 16.069031 27.693687 15.523281 27.554688 14.988281 L 27.052734 13.052734 C 26.949234 12.652234 26.615922 12.36875 26.230469 12.3125 z M 35.539062 13.019531 C 35.149906 13.034766 34.787625 13.276312 34.640625 13.664062 L 33.933594 15.535156 C 33.738594 16.052156 33.998625 16.629219 34.515625 16.824219 C 34.632625 16.867219 34.752141 16.888672 34.869141 16.888672 C 35.272141 16.888672 35.653688 16.642188 35.804688 16.242188 L 36.511719 14.371094 C 36.706719 13.854094 36.446688 13.277031 35.929688 13.082031 C 35.800688 13.033531 35.668781 13.014453 35.539062 13.019531 z M 21.474609 14.298828 C 21.347016 14.323187 21.221922 14.372469 21.107422 14.449219 C 20.647422 14.756219 20.523078 15.378891 20.830078 15.837891 L 21.939453 17.5 C 22.131453 17.789 22.448484 17.945312 22.771484 17.945312 C 22.962484 17.945312 23.156172 17.891344 23.326172 17.777344 C 23.786172 17.470344 23.910516 16.849625 23.603516 16.390625 L 22.494141 14.726562 C 22.264641 14.381562 21.857391 14.22575 21.474609 14.298828 z M 25.650391 23.039062 C 35.560391 23.339063 42.339922 25.219297 44.169922 25.779297 L 44.169922 26.830078 C 44.169922 27.950078 44.940234 28.589766 45.740234 29.009766 C 45.650234 28.999766 45.560703 29 45.470703 29 C 43.620703 29 41.939766 29.769531 40.759766 31.019531 C 39.489766 29.189531 37.38 28 35 28 C 31.14 28 28 31.14 28 35 C 28 38.86 31.14 42 35 42 C 37.6 42 39.870078 40.580703 41.080078 38.470703 C 42.410078 38.930703 43.440391 39.910938 43.900391 41.210938 C 43.97619 41.432923 44.128586 41.60412 44.314453 41.720703 C 44.494056 41.891494 44.734114 42 45 42 L 48 42 C 48.03 42 48.069609 41.999766 48.099609 42.009766 C 48.999609 42.079766 50 43.11 50 44 C 50 44.62 49.510156 45.309219 48.910156 45.699219 C 48.620156 45.879219 48.3 46 48 46 L 46.919922 46 L 44 46 C 43.45 46 43 46.45 43 47 C 43 47.55 43.45 48 44 48 L 48 48 L 48.019531 48 L 51.140625 52.519531 C 51.350625 52.939531 51.420547 53.330078 51.310547 53.580078 C 51.230547 53.780078 51.019688 53.940781 50.679688 54.050781 C 45.089688 55.920781 39.370312 54.070781 39.320312 54.050781 C 39.312571 54.04827 39.304633 54.049194 39.296875 54.046875 C 38.840425 53.894964 38.428943 53.764666 38.046875 53.644531 C 36.030626 53.010294 34.873605 52.626922 31.777344 50.326172 C 31.928416 49.868002 32 49.408777 32 49 C 32 48.447 31.553 48 31 48 C 30.447 48 30 48.447 30 49 C 30 49.334 29.903 51 28 51 C 27.447 51 27 51.447 27 52 C 27 52.553 27.447 53 28 53 C 29.197547 53 30.069634 52.59256 30.699219 52.011719 C 33.972172 54.431055 35.32429 54.883422 37.447266 55.550781 C 37.518299 55.573144 37.6065 55.601916 37.679688 55.625 C 37.642731 56.028345 37.693039 56.41963 37.740234 56.75 C 37.850234 57.54 37.870859 57.840938 37.380859 58.210938 C 36.100859 59.220937 35.329609 60.49 35.099609 62 L 21.380859 62 C 21.460859 58.99 21.919375 55.969297 22.359375 53.029297 C 22.809375 50.079297 23.230469 47.289531 23.230469 44.769531 C 23.230469 44.219531 22.780469 43.769531 22.230469 43.769531 C 20.950469 43.769531 19.510703 43.019453 18.970703 41.939453 C 18.830703 41.659453 18.75 41.359063 18.75 41.039062 C 18.75 40.839062 18.764922 40.644531 18.794922 40.457031 C 18.824922 40.269531 18.869687 40.089922 18.929688 39.919922 C 19.269687 38.909922 20.080625 38.249688 21.140625 38.179688 C 21.210625 38.169688 21.269844 38.169922 21.339844 38.169922 C 22.519844 38.169922 22.930781 38.350703 23.300781 38.720703 C 23.490781 38.900703 23.740469 39 23.980469 39 C 24.240469 39 24.499219 38.910938 24.699219 38.710938 C 24.709219 38.710938 24.710703 38.709219 24.720703 38.699219 C 24.750703 38.669219 24.779062 38.639609 24.789062 38.599609 C 24.929062 38.429609 25 38.21 25 38 C 25 33.03 24.400547 30.080859 23.810547 28.380859 L 26.800781 28.980469 C 27.120781 29.040469 27.449687 28.950469 27.679688 28.730469 C 27.919687 28.510469 28.030234 28.189141 27.990234 27.869141 C 27.980234 27.739141 27.640391 25.349062 25.650391 23.039062 z M 35 30 C 36.99 30 38.709766 31.159609 39.509766 32.849609 C 39.829766 33.499609 40 34.23 40 35 C 40 35.205 39.987891 35.406719 39.962891 35.605469 C 39.937891 35.804219 39.899609 35.999453 39.849609 36.189453 C 39.829609 36.289453 39.809297 36.380469 39.779297 36.480469 C 39.589297 37.070469 39.299922 37.619609 38.919922 38.099609 C 38.009922 39.259609 36.59 40 35 40 C 32.24 40 30 37.76 30 35 C 30 32.24 32.24 30 35 30 z M 45.470703 31 C 46.350703 31 47.169375 31.249453 47.859375 31.689453 C 48.439375 32.039453 48.939062 32.529375 49.289062 33.109375 C 49.739063 33.799375 50 34.62 50 35.5 C 50 37.24 49.010781 38.75 47.550781 39.5 C 46.960781 39.8 46.299844 39.980234 45.589844 39.990234 L 45.560547 39.990234 C 44.830547 38.400234 43.480547 37.199375 41.810547 36.609375 C 41.940547 36.089375 42 35.55 42 35 C 42 34.31 41.900938 33.63 41.710938 33 C 42.530937 31.79 43.910703 31 45.470703 31 z M 36.5 34 A 1.5 1.5 0 0 0 36.5 37 A 1.5 1.5 0 0 0 36.5 34 z M 47.5 34 A 1.5 1.5 0 0 0 47.5 37 A 1.5 1.5 0 0 0 47.5 34 z"/></svg>