<svg xmlns="http://www.w3.org/2000/svg"  viewBox="0 0 64 64" width="512px" height="512px"><path d="M 49.041016 3.0019531 C 48.911188 2.9964844 48.777687 3.015 48.648438 3.0625 L 40.935547 5.9550781 C 40.833547 5.9910781 40.732906 6.0293125 40.628906 6.0703125 C 40.119906 6.2733125 39.868406 6.8493281 40.066406 7.3613281 C 40.264406 7.8723281 40.836562 8.1255469 41.351562 7.9355469 L 41.617188 7.8359375 C 42.943188 7.3759375 43.878188 7.6178281 44.617188 7.9238281 C 45.495188 8.2868281 45.923672 9.671875 46.013672 10.171875 C 46.022672 10.220875 46.034781 10.268406 46.050781 10.316406 C 47.299781 14.063406 43.782781 17.028516 41.800781 18.353516 L 40.990234 11.875 C 40.958234 11.616 40.826047 11.38175 40.623047 11.21875 L 30.623047 3.21875 C 30.400047 3.04075 30.112078 2.9646719 29.830078 3.0136719 C 29.549078 3.0616719 29.302391 3.22675 29.150391 3.46875 L 24.150391 11.46875 C 23.905391 11.86175 23.962156 12.370219 24.285156 12.699219 C 24.608156 13.029219 25.115672 13.092469 25.513672 12.855469 L 29.697266 10.345703 L 30.925781 12.191406 C 29.987781 16.004406 28.593812 18.277438 26.882812 18.773438 C 24.828813 19.369438 22.726625 17.310469 22.640625 17.230469 C 21.377625 16.179469 20.707844 14.945984 20.589844 13.458984 C 20.287844 9.6829844 23.719906 5.6942969 23.753906 5.6542969 C 24.037906 5.3292969 24.080375 4.8573281 23.859375 4.4863281 C 23.638375 4.1153281 23.204203 3.9314844 22.783203 4.0214844 C 13.339203 6.1224844 8.2637344 21.049594 8.0527344 21.683594 C 8.0047344 21.825594 7.9888125 21.975047 8.0078125 22.123047 C 8.6638125 27.376047 12.887469 33.297531 15.980469 37.019531 C 15.794469 38.102531 15.094906 43.110844 17.378906 46.339844 C 18.424906 47.818844 19.925891 48.707328 21.837891 48.986328 C 26.070891 58.106328 33.558063 60.904406 33.664062 60.941406 C 33.772063 60.980406 33.887 61 34 61 C 34.161 61 34.32275 60.961766 34.46875 60.884766 C 40.45075 57.717766 43.691188 53.336641 45.367188 48.931641 C 49.400188 47.742641 50.716422 45.019594 51.107422 42.933594 C 51.521422 40.726594 50.985891 38.804609 50.962891 38.724609 C 50.959891 38.715609 50.952219 38.710172 50.949219 38.701172 C 52.513219 37.193172 53.69125 35.736047 53.78125 35.623047 C 54.06525 35.267047 54.073781 34.763438 53.800781 34.398438 L 51.154297 30.873047 L 55.910156 20.412109 C 56.021156 20.171109 56.0295 19.897437 55.9375 19.648438 L 49.9375 3.6484375 C 49.792 3.2599375 49.4305 3.0183594 49.041016 3.0019531 z M 48.414062 5.2851562 L 53.917969 19.962891 L 49.089844 30.585938 C 48.938844 30.918937 48.980219 31.307609 49.199219 31.599609 L 51.726562 34.96875 C 50.647562 36.22675 48.713375 38.256953 46.984375 39.376953 C 46.954375 35.852953 46.328406 33.100516 46.066406 32.103516 L 48.894531 26.447266 C 49.024531 26.187266 49.035828 25.884187 48.923828 25.617188 C 48.811828 25.350188 48.590406 25.142734 48.316406 25.052734 C 45.325406 24.050734 35.329844 26.399266 33.089844 26.947266 C 30.294844 25.824266 19.502609 23.320391 18.224609 23.025391 C 17.839609 22.937391 17.434266 23.084344 17.197266 23.402344 C 16.960266 23.721344 16.934812 24.151094 17.132812 24.496094 L 20.867188 31.03125 L 19.105469 34.552734 C 19.035469 34.691734 19 34.845 19 35 C 19 35.881 19.035891 36.724781 19.087891 37.550781 C 16.308891 34.436781 10.847437 27.710516 10.023438 22.103516 C 10.582437 20.539516 14.244828 10.837781 20.298828 7.1757812 C 19.331828 8.9077812 18.407703 11.237328 18.595703 13.611328 C 18.754703 15.636328 19.684969 17.372031 21.292969 18.707031 C 21.411969 18.827031 24.249781 21.611219 27.425781 20.699219 C 29.978781 19.967219 31.845609 17.116609 32.974609 12.224609 C 33.036609 11.955609 32.985031 11.674312 32.832031 11.445312 L 30.832031 8.4453125 C 30.536031 8.0013125 29.944375 7.8655781 29.484375 8.1425781 L 28.052734 9.0019531 L 30.251953 5.4804688 L 39.058594 12.525391 L 40.007812 20.123047 C 40.047812 20.445047 40.240344 20.726859 40.527344 20.880859 C 40.814344 21.034859 41.158266 21.038531 41.447266 20.894531 C 41.804266 20.715531 50.141703 16.456 47.970703 9.75 C 47.873703 9.262 47.38025 7.2044375 45.78125 6.2734375 L 48.414062 5.2851562 z M 20.007812 25.498047 C 25.041812 26.693047 31.352688 28.293531 32.554688 28.894531 C 32.767688 28.999531 33.012187 29.029703 33.242188 28.970703 C 37.122188 28.001703 43.527328 26.716969 46.486328 26.792969 L 44.105469 31.552734 C 43.989469 31.783734 43.969875 32.053781 44.046875 32.300781 C 44.148875 32.626781 45.215875 36.169672 45.046875 40.763672 C 45.016875 40.882672 45.011344 41.002906 45.027344 41.128906 C 44.736344 46.898906 42.452359 54.199531 33.943359 58.894531 C 31.746359 57.909531 21.097953 52.252375 21.001953 35.234375 L 22.894531 31.447266 C 23.043531 31.148266 23.035141 30.795859 22.869141 30.505859 L 20.007812 25.498047 z M 29 31.044922 C 28.448 31.044922 28 31.492922 28 32.044922 L 28 34.044922 C 28 34.596922 28.448 35.044922 29 35.044922 C 29.552 35.044922 30 34.596922 30 34.044922 L 30 32.044922 C 30 31.492922 29.552 31.044922 29 31.044922 z M 34 31.044922 C 33.448 31.044922 33 31.492922 33 32.044922 L 33 34.044922 C 33 34.596922 33.448 35.044922 34 35.044922 C 34.552 35.044922 35 34.596922 35 34.044922 L 35 32.044922 C 35 31.492922 34.552 31.044922 34 31.044922 z M 39 31.044922 C 38.448 31.044922 38 31.492922 38 32.044922 L 38 34.044922 C 38 34.596922 38.448 35.044922 39 35.044922 C 39.552 35.044922 40 34.596922 40 34.044922 L 40 32.044922 C 40 31.492922 39.552 31.044922 39 31.044922 z M 27 38 C 26.447 38 26 38.447 26 39 C 26 39.553 26.447 40 27 40 L 29 40 L 29.029297 40 C 29.009297 40.162 29 40.329 29 40.5 C 29 41.881 29.672 43 30.5 43 C 31.328 43 32 41.881 32 40.5 L 32 39 C 32 38.447 31.553 38 31 38 L 27 38 z M 38 38 C 37.447 38 37 38.447 37 39 L 37 40.5 C 37 41.881 37.672 43 38.5 43 C 39.328 43 40 41.881 40 40.5 C 40 40.329 39.990703 40.162 39.970703 40 L 40 40 L 42 40 C 42.553 40 43 39.553 43 39 C 43 38.447 42.553 38 42 38 L 38 38 z M 17.767578 39.082031 C 18.611578 40.015031 19.199922 40.613031 19.294922 40.707031 C 19.334922 40.747031 19.384688 40.766828 19.429688 40.798828 C 19.758688 42.959828 20.261672 44.907203 20.888672 46.658203 C 20.127672 46.346203 19.499625 45.8715 19.015625 45.1875 C 17.772625 43.4345 17.664578 40.836031 17.767578 39.082031 z M 49.212891 40.232422 C 49.398891 41.797422 49.290391 44.86675 46.150391 46.46875 C 46.573391 44.83375 46.805109 43.228938 46.912109 41.710938 C 47.671109 41.362938 48.455891 40.832422 49.212891 40.232422 z M 35 42 C 34.447 42 34 42.447 34 43 L 34 47.382812 L 33.447266 47.105469 C 32.953266 46.859469 32.353469 47.058734 32.105469 47.552734 C 31.858469 48.046734 32.058734 48.646531 32.552734 48.894531 L 34.552734 49.894531 C 34.693734 49.964531 34.847 50 35 50 C 35.183 50 35.365391 49.950562 35.525391 49.851562 C 35.820391 49.668563 36 49.347 36 49 L 36 43 C 36 42.447 35.553 42 35 42 z M 37.017578 51 C 36.887906 50.997484 36.755906 51.019312 36.628906 51.070312 L 31.628906 53.070312 C 31.115906 53.275312 30.865313 53.858094 31.070312 54.371094 C 31.227313 54.763094 31.604 55 32 55 C 32.124 55 32.250094 54.978687 32.371094 54.929688 L 37.371094 52.929688 C 37.884094 52.724688 38.134687 52.141906 37.929688 51.628906 C 37.775937 51.242656 37.406594 51.007547 37.017578 51 z"/></svg>